<mxfile host="65bd71144e">
    <diagram id="yd66e7nmUdR6AGph9s9_" name="Page-1">
        <mxGraphModel dx="3907" dy="1713" grid="1" gridSize="10" guides="1" tooltips="1" connect="1" arrows="1" fold="1" page="1" pageScale="1" pageWidth="850" pageHeight="1100" math="0" shadow="0">
            <root>
                <mxCell id="0"/>
                <mxCell id="1" parent="0"/>
                <mxCell id="66" style="edgeStyle=none;html=1;exitX=0.5;exitY=0.5;exitDx=0;exitDy=0;exitPerimeter=0;entryX=0;entryY=0.5;entryDx=0;entryDy=0;fontSize=25;fontColor=#000000;strokeWidth=2;" parent="1" source="6" target="38" edge="1">
                    <mxGeometry relative="1" as="geometry">
                        <Array as="points">
                            <mxPoint x="-640" y="470"/>
                            <mxPoint x="-640" y="255"/>
                        </Array>
                    </mxGeometry>
                </mxCell>
                <mxCell id="68" style="edgeStyle=none;html=1;exitX=0.5;exitY=0.5;exitDx=0;exitDy=0;exitPerimeter=0;entryX=0;entryY=0.5;entryDx=0;entryDy=0;fontSize=25;fontColor=#000000;strokeWidth=2;" parent="1" source="6" target="52" edge="1">
                    <mxGeometry relative="1" as="geometry">
                        <Array as="points">
                            <mxPoint x="-800" y="470"/>
                            <mxPoint x="-800" y="520"/>
                        </Array>
                    </mxGeometry>
                </mxCell>
                <mxCell id="69" style="edgeStyle=none;html=1;exitX=0.5;exitY=0.5;exitDx=0;exitDy=0;exitPerimeter=0;entryX=0;entryY=0;entryDx=0;entryDy=0;fontSize=25;fontColor=#000000;strokeWidth=2;" parent="1" source="6" target="10" edge="1">
                    <mxGeometry relative="1" as="geometry">
                        <Array as="points">
                            <mxPoint x="-760" y="470"/>
                            <mxPoint x="-760" y="500"/>
                            <mxPoint x="-520" y="500"/>
                            <mxPoint x="-520" y="400"/>
                            <mxPoint x="-91" y="400"/>
                        </Array>
                    </mxGeometry>
                </mxCell>
                <mxCell id="70" style="edgeStyle=none;html=1;exitX=0.5;exitY=0.5;exitDx=0;exitDy=0;exitPerimeter=0;entryX=0.5;entryY=1;entryDx=0;entryDy=0;fontSize=25;fontColor=#000000;strokeWidth=2;" parent="1" source="6" target="45" edge="1">
                    <mxGeometry relative="1" as="geometry">
                        <Array as="points">
                            <mxPoint x="-820" y="470"/>
                            <mxPoint x="-820" y="650"/>
                            <mxPoint x="300" y="650"/>
                        </Array>
                    </mxGeometry>
                </mxCell>
                <mxCell id="6" value="Fonctionnaire&lt;br style=&quot;font-size: 30px;&quot;&gt;" style="shape=umlActor;verticalLabelPosition=bottom;verticalAlign=top;html=1;outlineConnect=0;fillColor=#a0522d;strokeColor=#6D1F00;strokeWidth=5;fontSize=30;fontColor=#000000;gradientColor=default;fontStyle=1" parent="1" vertex="1">
                    <mxGeometry x="-931" y="390" width="80" height="160" as="geometry"/>
                </mxCell>
                <mxCell id="54" style="edgeStyle=none;html=1;exitX=0.5;exitY=0.5;exitDx=0;exitDy=0;exitPerimeter=0;fontSize=20;entryX=0.5;entryY=0;entryDx=0;entryDy=0;strokeWidth=2;" parent="1" source="7" target="53" edge="1">
                    <mxGeometry relative="1" as="geometry">
                        <mxPoint x="-180" y="800" as="targetPoint"/>
                        <Array as="points">
                            <mxPoint x="-800" y="700"/>
                            <mxPoint x="-800" y="810"/>
                            <mxPoint x="-680" y="810"/>
                            <mxPoint x="-180" y="810"/>
                        </Array>
                    </mxGeometry>
                </mxCell>
                <mxCell id="71" style="edgeStyle=none;html=1;exitX=0.5;exitY=0.5;exitDx=0;exitDy=0;exitPerimeter=0;entryX=0.668;entryY=1.001;entryDx=0;entryDy=0;entryPerimeter=0;fontSize=25;fontColor=#000000;strokeWidth=2;" parent="1" source="7" target="45" edge="1">
                    <mxGeometry relative="1" as="geometry">
                        <Array as="points">
                            <mxPoint x="-760" y="700"/>
                            <mxPoint x="334" y="700"/>
                        </Array>
                    </mxGeometry>
                </mxCell>
                <mxCell id="72" style="edgeStyle=none;html=1;exitX=0.5;exitY=0.5;exitDx=0;exitDy=0;exitPerimeter=0;entryX=0.5;entryY=1;entryDx=0;entryDy=0;fontSize=25;fontColor=#000000;strokeWidth=2;" parent="1" source="7" target="46" edge="1">
                    <mxGeometry relative="1" as="geometry">
                        <Array as="points">
                            <mxPoint x="-800" y="700"/>
                            <mxPoint x="-800" y="760"/>
                            <mxPoint x="460" y="750"/>
                        </Array>
                    </mxGeometry>
                </mxCell>
                <mxCell id="7" value="Entité&lt;br style=&quot;font-size: 30px;&quot;&gt;" style="shape=umlActor;verticalLabelPosition=bottom;verticalAlign=top;html=1;outlineConnect=0;fillColor=#a0522d;strokeColor=#6D1F00;fontSize=30;fontColor=#000000;gradientColor=default;strokeWidth=5;fontStyle=1" parent="1" vertex="1">
                    <mxGeometry x="-930" y="620" width="80" height="160" as="geometry"/>
                </mxCell>
                <mxCell id="65" style="edgeStyle=none;html=1;exitX=0.5;exitY=0.5;exitDx=0;exitDy=0;exitPerimeter=0;fontSize=25;fontColor=#000000;entryX=0.5;entryY=0;entryDx=0;entryDy=0;strokeWidth=2;" parent="1" source="8" target="10" edge="1">
                    <mxGeometry relative="1" as="geometry">
                        <mxPoint x="-800" y="218" as="targetPoint"/>
                        <Array as="points">
                            <mxPoint x="-760" y="218"/>
                            <mxPoint x="-760" y="120"/>
                            <mxPoint x="-20" y="120"/>
                        </Array>
                    </mxGeometry>
                </mxCell>
                <mxCell id="8" value="Visiteur" style="shape=umlActor;verticalLabelPosition=bottom;verticalAlign=top;html=1;outlineConnect=0;fillColor=#a0522d;strokeColor=#6D1F00;fontSize=30;strokeWidth=5;fontColor=#000000;gradientColor=default;fontStyle=1" parent="1" vertex="1">
                    <mxGeometry x="-931" y="138" width="80" height="160" as="geometry"/>
                </mxCell>
                <mxCell id="15" value="Système" style="swimlane;whiteSpace=wrap;html=1;fillColor=#f5f5f5;gradientColor=#b3b3b3;strokeColor=#000000;strokeWidth=8;rounded=1;glass=0;shadow=0;swimlaneLine=1;fontSize=20;startSize=40;" parent="1" vertex="1">
                    <mxGeometry x="-720" y="40" width="1400" height="1040" as="geometry"/>
                </mxCell>
                <mxCell id="10" value="Lire une publication&lt;br style=&quot;font-size: 20px;&quot;&gt;" style="ellipse;html=1;fillColor=#E6D0DE;strokeColor=#996185;fontColor=#000000;gradientColor=#D5739D;fontSize=20;labelBackgroundColor=none;whiteSpace=wrap;labelBorderColor=none;shadow=1;" parent="15" vertex="1">
                    <mxGeometry x="600" y="380" width="200" height="200" as="geometry"/>
                </mxCell>
                <mxCell id="45" value="S'authentifier" style="ellipse;html=1;fillColor=#E6D0DE;strokeColor=#996185;fontColor=#000000;gradientColor=#D5739D;fontSize=20;labelBackgroundColor=none;whiteSpace=wrap;labelBorderColor=none;shadow=1;" parent="15" vertex="1">
                    <mxGeometry x="920" y="380" width="200" height="200" as="geometry"/>
                </mxCell>
                <mxCell id="46" value="&lt;span style=&quot;font-size: 20px;&quot;&gt;Faire une&amp;nbsp;&lt;/span&gt;&lt;br style=&quot;border-color: var(--border-color); font-size: 20px;&quot;&gt;&lt;span style=&quot;font-size: 20px;&quot;&gt;publication&lt;/span&gt;" style="ellipse;html=1;fillColor=#E6D0DE;strokeColor=#996185;fontColor=#000000;gradientColor=#D5739D;fontSize=20;labelBackgroundColor=none;whiteSpace=wrap;labelBorderColor=none;shadow=1;" parent="15" vertex="1">
                    <mxGeometry x="1080" y="118" width="200" height="200" as="geometry"/>
                </mxCell>
                <mxCell id="48" value="&lt;span style=&quot;font-size: 20px;&quot;&gt;Ajouter&lt;/span&gt;&lt;br style=&quot;border-color: var(--border-color); font-size: 20px;&quot;&gt;&lt;span style=&quot;font-size: 20px;&quot;&gt;un bulletin&lt;/span&gt;" style="ellipse;html=1;fillColor=#E6D0DE;strokeColor=#996185;fontColor=#000000;gradientColor=#D5739D;fontSize=20;labelBackgroundColor=none;whiteSpace=wrap;labelBorderColor=none;shadow=1;" parent="15" vertex="1">
                    <mxGeometry x="1080" y="800" width="200" height="200" as="geometry"/>
                </mxCell>
                <mxCell id="49" value="Consulter les informations d'un fonctionnair" style="ellipse;html=1;fillColor=#E6D0DE;strokeColor=#996185;fontColor=#000000;gradientColor=#D5739D;fontSize=20;labelBackgroundColor=none;whiteSpace=wrap;labelBorderColor=none;shadow=1;" parent="15" vertex="1">
                    <mxGeometry x="760" y="800" width="200" height="200" as="geometry"/>
                </mxCell>
                <mxCell id="52" value="Mettre à jour son profil" style="ellipse;html=1;fillColor=#E6D0DE;strokeColor=#996185;fontColor=#000000;gradientColor=#D5739D;fontSize=20;labelBackgroundColor=none;whiteSpace=wrap;labelBorderColor=none;shadow=1;" parent="15" vertex="1">
                    <mxGeometry x="280" y="380" width="200" height="200" as="geometry"/>
                </mxCell>
                <mxCell id="53" value="&lt;span style=&quot;font-size: 20px;&quot;&gt;Supprimer &lt;br&gt;une&amp;nbsp;&lt;/span&gt;&lt;br style=&quot;border-color: var(--border-color); font-size: 20px;&quot;&gt;&lt;span style=&quot;font-size: 20px;&quot;&gt;publication&lt;/span&gt;" style="ellipse;html=1;fillColor=#E6D0DE;strokeColor=#996185;fontColor=#000000;gradientColor=#D5739D;fontSize=20;labelBackgroundColor=none;whiteSpace=wrap;labelBorderColor=none;shadow=1;fontStyle=0" parent="15" vertex="1">
                    <mxGeometry x="440" y="800" width="200" height="200" as="geometry"/>
                </mxCell>
                <mxCell id="56" value="Restraindre&lt;br&gt;un utilisateur" style="ellipse;html=1;fillColor=#E6D0DE;strokeColor=#996185;fontColor=#000000;gradientColor=#D5739D;fontSize=20;labelBackgroundColor=none;whiteSpace=wrap;labelBorderColor=none;shadow=1;" parent="15" vertex="1">
                    <mxGeometry x="120" y="800" width="200" height="200" as="geometry"/>
                </mxCell>
                <mxCell id="38" value="&lt;span style=&quot;font-size: 20px;&quot;&gt;Télécharger&lt;/span&gt;&lt;br style=&quot;border-color: var(--border-color); font-size: 20px;&quot;&gt;&lt;span style=&quot;font-size: 20px;&quot;&gt;un bulletin&lt;/span&gt;" style="ellipse;html=1;fillColor=#E6D0DE;strokeColor=#996185;fontColor=#000000;gradientColor=#D5739D;fontSize=20;labelBackgroundColor=none;whiteSpace=wrap;labelBorderColor=none;shadow=1;" parent="15" vertex="1">
                    <mxGeometry x="120" y="116" width="200" height="200" as="geometry"/>
                </mxCell>
                <mxCell id="55" style="edgeStyle=none;html=1;exitX=0;exitY=0.5;exitDx=0;exitDy=0;entryX=0.61;entryY=0.01;entryDx=0;entryDy=0;fontSize=20;entryPerimeter=0;strokeWidth=2;" parent="1" source="25" target="53" edge="1">
                    <mxGeometry relative="1" as="geometry">
                        <Array as="points">
                            <mxPoint x="740" y="575"/>
                            <mxPoint x="740" y="780"/>
                            <mxPoint x="-158" y="780"/>
                        </Array>
                    </mxGeometry>
                </mxCell>
                <mxCell id="61" style="edgeStyle=none;html=1;exitX=0.5;exitY=1;exitDx=0;exitDy=0;entryX=0.5;entryY=0;entryDx=0;entryDy=0;fontSize=25;fontColor=#000000;strokeWidth=2;" parent="1" source="25" target="48" edge="1">
                    <mxGeometry relative="1" as="geometry">
                        <Array as="points">
                            <mxPoint x="880" y="820"/>
                            <mxPoint x="500" y="820"/>
                        </Array>
                    </mxGeometry>
                </mxCell>
                <mxCell id="62" style="edgeStyle=none;html=1;exitX=0.25;exitY=1;exitDx=0;exitDy=0;entryX=0.5;entryY=0;entryDx=0;entryDy=0;fontSize=25;fontColor=#000000;strokeWidth=2;" parent="1" source="25" target="49" edge="1">
                    <mxGeometry relative="1" as="geometry">
                        <Array as="points">
                            <mxPoint x="846" y="800"/>
                            <mxPoint x="220" y="800"/>
                        </Array>
                    </mxGeometry>
                </mxCell>
                <mxCell id="73" style="edgeStyle=none;html=1;exitX=0;exitY=0.25;exitDx=0;exitDy=0;entryX=0.668;entryY=0.996;entryDx=0;entryDy=0;entryPerimeter=0;fontSize=25;fontColor=#000000;strokeWidth=2;" parent="1" source="25" target="46" edge="1">
                    <mxGeometry relative="1" as="geometry">
                        <Array as="points">
                            <mxPoint x="494" y="541"/>
                        </Array>
                    </mxGeometry>
                </mxCell>
                <mxCell id="25" value="CASEF" style="whiteSpace=wrap;html=1;aspect=fixed;fillColor=#a0522d;fontColor=#ffffff;strokeColor=#1a1b18;gradientColor=default;strokeWidth=2;fontSize=30;fontStyle=1" parent="1" vertex="1">
                    <mxGeometry x="808" y="503" width="150" height="150" as="geometry"/>
                </mxCell>
                <mxCell id="58" style="edgeStyle=none;html=1;exitX=0.5;exitY=0.5;exitDx=0;exitDy=0;exitPerimeter=0;entryX=0;entryY=0;entryDx=0;entryDy=0;fontSize=20;strokeWidth=2;" parent="1" source="57" target="56" edge="1">
                    <mxGeometry relative="1" as="geometry">
                        <Array as="points">
                            <mxPoint x="-630" y="920"/>
                            <mxPoint x="-630" y="869"/>
                        </Array>
                    </mxGeometry>
                </mxCell>
                <mxCell id="59" style="edgeStyle=none;html=1;exitX=0.5;exitY=0.5;exitDx=0;exitDy=0;exitPerimeter=0;entryX=0.1;entryY=0.8;entryDx=0;entryDy=0;fontSize=20;entryPerimeter=0;strokeWidth=2;" parent="1" source="57" target="53" edge="1">
                    <mxGeometry relative="1" as="geometry">
                        <Array as="points">
                            <mxPoint x="-680" y="920"/>
                            <mxPoint x="-680" y="1060"/>
                            <mxPoint x="-320" y="1060"/>
                            <mxPoint x="-320" y="1000"/>
                        </Array>
                    </mxGeometry>
                </mxCell>
                <mxCell id="57" value="Technicien&lt;br style=&quot;font-size: 30px;&quot;&gt;" style="shape=umlActor;verticalLabelPosition=bottom;verticalAlign=top;html=1;outlineConnect=0;fillColor=#a0522d;strokeColor=#6D1F00;fontSize=30;fontColor=#000000;gradientColor=default;labelBackgroundColor=none;strokeWidth=5;fontStyle=1" parent="1" vertex="1">
                    <mxGeometry x="-930" y="840" width="80" height="160" as="geometry"/>
                </mxCell>
            </root>
        </mxGraphModel>
    </diagram>
</mxfile>